<svg xmlns="http://www.w3.org/2000/svg" width="64" height="52" viewBox="0 0 64 52"><defs><style>.cls-1 { fill: #e8e9ed; fill-rule: evenodd; }</style></defs><path id="communicate" class="cls-1" d="M1528 43a2.074 2.074 0 0 0-2 2v2.6l-56 16.8v-1.4a2 2 0 1 0-4 0v12a2 2 0 1 0 4 0v-1.4l17 5.2v3.2a11.052 11.052 0 0 0 11 11 10.888 10.888 0 0 0 10.53-7.8l17.47 5.2v2.6a2 2 0 0 0 4 0v-48a2.074 2.074 0 0 0-2-2zm-30 46a7.046 7.046 0 0 1-7-7v-2l13.7 4a6.881 6.881 0 0 1-6.7 5z" transform="translate(-1466 -43)"/></svg>