<svg xmlns="http://www.w3.org/2000/svg" width="60" height="60" viewBox="0 0 60 60"><defs><style>.cls-1 { fill: #e8e9ed; fill-rule: evenodd; }</style></defs><path id="commission" class="cls-1" d="M1754 67l-4.56-4.6v-6.4l-5.96-2.6-2.48-6h-6.46l-4.56-4.4-5.98 2.4-5.96-2.4-4.58 4.4h-6.46l-2.46 6-5.98 2.6v6.4l-4.56 4.6 2.46 6-2.46 5.8 4.56 4.6v6.6l5.98 2.4 2.46 6h6.46l4.58 4.6 5.96-2.6 5.98 2.6 4.56-4.6h6.46l2.48-6 5.96-2.4v-6.6l4.56-4.6-2.46-5.8zm-28 22.4v3.6a2 2 0 0 1-4 0v-3.6a10.1 10.1 0 0 1-8-9.8 2 2 0 1 1 4 0 5.954 5.954 0 0 0 6 6c3.54 0 6-2.2 6-5.4 0-2.6-2.16-4.4-6.44-5.4-7.9-1.8-9.56-6-9.56-9.2a9.352 9.352 0 0 1 8-9.2v-3.4a2 2 0 0 1 4 0v3.4a9.991 9.991 0 0 1 7.88 8.2 2.006 2.006 0 1 1-3.96.6 6.07 6.07 0 0 0-5.92-5c-3.52 0-6 2.2-6 5.4 0 1 0 4 6.44 5.4 8.32 1.8 9.56 6.6 9.56 9.2a9.2 9.2 0 0 1-8 9.2z" transform="translate(-1694 -43)"/></svg>