<svg xmlns="http://www.w3.org/2000/svg" width="58" height="64" viewBox="0 0 58 64"><defs><style>.cls-1 { fill: #e8e9ed; fill-rule: evenodd; }</style></defs><path id="contacts" class="cls-1" d="M1087 48h-2v-10h-43a7.086 7.086 0 0 0-7 7v11h-2a2.059 2.059 0 0 0-2 2 1.933 1.933 0 0 0 2 2h2v6h-2a2.059 2.059 0 0 0-2 2 1.933 1.933 0 0 0 2 2h2v6h-2a2.059 2.059 0 0 0-2 2 1.933 1.933 0 0 0 2 2h2v6h-2a2.059 2.059 0 0 0-2 2 1.933 1.933 0 0 0 2 2h2v5a6.919 6.919 0 0 0 7 7h47v-52a2.074 2.074 0 0 0-2-2zm-8.04 35a7.183 7.183 0 0 1-6.74 5c-4.5 0-10.02-3.4-14.84-8.4-4.84-4.8-8.38-10.2-8.38-14.8a7.417 7.417 0 0 1 5.02-6.8c1.4-.2 2 1 2.46 1.6.44.6 3 4.6 3.4 5.2a2.348 2.348 0 0 1-.64 3.2c-1.46 1.2-2.88 1.6 2.62 7.2 5.5 5.4 5.94 4 7.12 2.6a2.445 2.445 0 0 1 3.26-.6c.62.4 4.56 3 5.2 3.4a2.351 2.351 0 0 1 1.52 2.4zm2.04-35h-38.98a2.927 2.927 0 0 1-3.02-3 3.066 3.066 0 0 1 3.02-3h38.98v6z" transform="translate(-1031 -38)"/></svg>