<svg xmlns="http://www.w3.org/2000/svg" width="54" height="55" viewBox="0 0 54 55"><defs><style>.cls-1 { fill: #3badbb; fill-rule: evenodd; }</style></defs><path id="customise" class="cls-1" d="M1365.01 261.023c10.32.871 6.62-10.292 16.17-10.4l4.13 3.514c1.03 12.691-14.2 15.52-20.3 6.886zm31.63-16.3c3.21-5.129 13.16-22.332 13.16-22.332a1.466 1.466 0 0 0-2.2-1.863s-14.78 13.089-19.14 17.238c-3.45 3.28-3.46 4.778-4.58 10.187l3.78 3.207c5.01-2.094 6.45-2.378 8.98-6.435zm-26.98 8.879c1.49-2.6 3.93-6.82 10-7.473.97-4.78 1.36-7.559 5.73-11.71 3.09-2.936 11.1-10.1 15.79-14.269-2.25-5.057-9.31-9.215-18.4-9.14a27.256 27.256 0 0 0-26.77 27.7 27.682 27.682 0 0 0 6.34 17.489c3.64.985 5.35.801 7.31-2.599zm15.63-36.274a4.581 4.581 0 1 1-4.46 4.616 4.56 4.56 0 0 1 4.46-4.614zm-13.49 4.584a4.581 4.581 0 1 1-4.46 4.607 4.526 4.526 0 0 1 4.46-4.605zm-4.5 13.74a4.582 4.582 0 1 1-4.46 4.615 4.532 4.532 0 0 1 4.46-4.613zm22.56 19.544a15.014 15.014 0 0 1-3.78 10.507l-.11.1c11.82-1.354 20.39-9.859 14.1-18.071-3.09 4.692-5.7 5.597-10.21 7.468z" transform="translate(-1356 -211)"/></svg>