<svg xmlns="http://www.w3.org/2000/svg" width="71.25" height="64" viewBox="0 0 71.25 64"><defs><style>.cls-1 { fill: #9289ca ; fill-rule: evenodd; }</style></defs><path id="dashboard" class="cls-1" d="M997.437 76.841a3.9 3.9 0 0 1-5.552 0l-5.177-5.23v26.389a3.979 3.979 0 0 1-3.96 4h-39.6a3.978 3.978 0 0 1-3.959-4v-26.388l-5.177 5.229a3.9 3.9 0 0 1-5.554 0 4 4 0 0 1 0-5.608l10.734-10.833v-.4h.387l20.257-20.46a3.952 3.952 0 0 1 5.924-.376 3.757 3.757 0 0 1 .3.376l20.26 20.46h.388v.4l10.729 10.838a4 4 0 0 1 0 5.603zm-18.649 1.159v-14.389l-15.838-16-15.839 16v30.389h7.919v-12a3.979 3.979 0 0 1 3.96-4h7.919a3.979 3.979 0 0 1 3.96 4v12h7.919v-16zm-15.838-8a4 4 0 1 1 3.959-4 3.979 3.979 0 0 1-3.959 4z" transform="translate(-927.344 -38)"/></svg>