<svg xmlns="http://www.w3.org/2000/svg" width="40" height="40" viewBox="0 0 40 40"><defs><style>.cls-1 { fill: #9E9E9E; fill-rule: evenodd; }</style></defs><path id="delete" class="cls-1" d="M1118.5 910.5v25a2.5 2.5 0 0 1-2.5 2.5h-30a2.5 2.5 0 0 1-2.5-2.5v-25h-2.5v-2.5a2.5 2.5 0 0 1 2.5-2.5h10v-5a2.5 2.5 0 0 1 2.5-2.5h10a2.5 2.5 0 0 1 2.5 2.5v5h10a2.5 2.5 0 0 1 2.5 2.5v2.5h-2.5zm-15-7.5h-5v2.5h5v-2.5zm10 7.5h-25v22.5h25v-22.5zm-15 17.5h-5v-12.5h5v12.5zm10 0h-5v-12.5h5v12.5z" transform="translate(-1081 -898)"/></svg>