<svg xmlns="http://www.w3.org/2000/svg" width="58" height="58" viewBox="0 0 58 58"><defs><style>.cls-1 { fill: #fff; fill-rule: evenodd; }</style></defs><path id="feedback" class="cls-1" d="M1318 250.876v3.624a3.622 3.622 0 0 1-3.62 3.625h-7.25v10.875l-16.32-10.875h-27.18a3.624 3.624 0 0 1-3.63-3.625v-39.875a3.624 3.624 0 0 1 3.63-3.625h50.75a3.622 3.622 0 0 1 3.62 3.625v36.249zm-7.25-32.626h-43.5v32.625h23.56l9.07 5.438v-5.438h10.87v-32.625zm-32.62 25.375h-3.63v-7.25h29v7.25h-25.37zm-3.63-18.125h29v7.25h-29v-7.25z" transform="translate(-1260 -211)"/></svg>