<svg xmlns="http://www.w3.org/2000/svg" width="60" height="54" viewBox="0 0 60 54"><defs><style>.cls-1 { fill: #e8e9ed; fill-rule: evenodd; }</style></defs><path id="insurancetools" class="cls-1" d="M1277.12 56.8a1.986 1.986 0 0 0 1.42-.6l9.68-9.6a1.5 1.5 0 0 1 1.19-.6h.01a1.5 1.5 0 0 1 1.19.6l1.26 1.2-6 6 5.31 5.4 8.71-8.8h.01a3.856 3.856 0 0 0 0-5.4 3.731 3.731 0 0 0-5.19 0h-.02l-1.25-1.2a5.294 5.294 0 0 0-4.02-1.8h-.01a5.324 5.324 0 0 0-4.02 1.8l-9.68 9.6a2 2 0 0 0 1.41 3.4zm-12.87 18.6l-3.25 8.6 8.56-3.2 18.79-18.8-5.31-5.4zm29.69-13.4a5.566 5.566 0 0 1-1.74 1 5.162 5.162 0 0 1-1.02 1.8l-18.79 18.8a3.757 3.757 0 0 1-1.4.8l-8.57 3.4a3.451 3.451 0 0 1-1.42.2 4.02 4.02 0 0 1-3.74-5.4l3.25-8.6a3.533 3.533 0 0 1 .92-1.4l10.58-10.6h-19.01v34h60v-34h-19.06zm11.06 26h-25.9a2 2 0 0 1 0-4h25.9a2 2 0 0 1 0 4zm0-8h-15.89a2 2 0 1 1 0-4h15.89a2 2 0 1 1 0 4z" transform="translate(-1253 -42)"/></svg>