<svg xmlns="http://www.w3.org/2000/svg" width="60.812" height="61.125" viewBox="0 0 60.812 61.125"><defs><style>.cls-1 { fill: white; fill-rule: evenodd; }</style></defs><path id="launch" class="cls-1" d="M546.491 87.674l-5.231-5.254 1.937-5.539 8.809 8.847zm-1.784-29.356c-4.509-.03-10.169 2.425-14.49 6.764a23.476 23.476 0 0 0-4.217 5.753c3.9-2.96 8.052-3.888 12.921-1.143a57.067 57.067 0 0 1 5.786-11.374zm25.785 25.86a61.835 61.835 0 0 1-11.326 5.848c2.732 4.888 1.807 9.061-1.14 12.975a23.4 23.4 0 0 0 5.729-4.238c4.33-4.349 6.776-10.051 6.737-14.585zm16.208-42.198c-24.654-1.72-38.544 16.6-43.455 31.2l12.455 12.514c15.04-5.413 32.879-18.933 31-43.714zm-26.056 26.226a2.654 2.654 0 0 1 0-3.742 2.627 2.627 0 0 1 3.726 0 2.656 2.656 0 0 1 0 3.742 2.627 2.627 0 0 1-3.726 0zm7.452-7.485a5.311 5.311 0 0 1 0-7.485 5.256 5.256 0 0 1 7.453 0 5.312 5.312 0 0 1 0 7.485 5.256 5.256 0 0 1-7.449 0z" transform="translate(-526 -41.875)"/></svg>