<svg xmlns="http://www.w3.org/2000/svg" width="30.5" height="28.25" viewBox="0 0 30.5 28.25"><defs><style>.cls-1 { fill: #544890; fill-rule: evenodd; }</style></defs><path id="list" class="cls-1" d="M1357 502h19v-5h-19v5zm0 21h19v-5h-19v5zm0-10h19v-5h-19v5zm-7.75-17.118a3.765 3.765 0 1 0 3.75 3.765 3.758 3.758 0 0 0-3.75-3.765zm0 20.706a3.765 3.765 0 1 0 3.75 3.765 3.758 3.758 0 0 0-3.75-3.765zm0-10.353a3.765 3.765 0 1 0 3.75 3.765 3.758 3.758 0 0 0-3.75-3.765z" transform="translate(-1345.5 -495.875)"/></svg>