<svg xmlns="http://www.w3.org/2000/svg" width="65" height="65" viewBox="0 0 65 65"><defs><style>.cls-1 { fill: #e8e9ed; fill-rule: evenodd; }</style></defs><path id="loantools" class="cls-1" d="M1154.68 38a21.667 21.667 0 1 0 21.66 21.667 21.7 21.7 0 0 0-21.66-21.667zm2.17 33.583v1.083a2.17 2.17 0 0 1-4.34 0v-1.083a7.842 7.842 0 0 1-5.41-7.366 2.165 2.165 0 1 1 4.33 0 3.3 3.3 0 0 0 3.25 3.25c1.58 0 3.27-.867 3.27-2.817 0-.433 0-1.95-3.75-2.817h-.02c-6.15-1.517-7.08-4.983-7.08-7.15a6.806 6.806 0 0 1 5.41-6.717v-1.3a2.17 2.17 0 0 1 4.34 0v1.3a7.6 7.6 0 0 1 5.33 5.85 2.188 2.188 0 1 1-4.29.867 3.383 3.383 0 0 0-3.21-2.817c-1.56 0-3.25.867-3.25 2.817 0 .65 0 1.95 3.75 2.816h.02c6.15 1.517 7.08 5.2 7.08 7.15a7.044 7.044 0 0 1-5.43 6.934zm23.82-11.483a26.409 26.409 0 0 1-7.56 17.983 2.362 2.362 0 0 1 1.22.217 6.91 6.91 0 0 0 2.49.866h.04c6.13 1.517 7.06 5.2 7.06 7.15a7.026 7.026 0 0 1-5.41 6.933v1.083a2.17 2.17 0 0 1-4.34 0v-1.082a7.842 7.842 0 0 1-5.41-7.367 2.165 2.165 0 1 1 4.33 0 3.287 3.287 0 0 0 3.25 3.25c1.56 0 3.25-.867 3.25-2.817 0-.433 0-1.95-3.73-2.817h-.02a14.536 14.536 0 0 1-3.74-1.517 2.085 2.085 0 0 1-1.02-2.167 24.66 24.66 0 0 1-15.97 5.85 21.665 21.665 0 1 0 25.56-25.565zm1.37 17.983h-.37a2.059 2.059 0 0 1-2.12-1.733 4.662 4.662 0 0 0-1-1.95 2.127 2.127 0 0 1-.13-3.033 2.149 2.149 0 0 1 3.08 0 7.345 7.345 0 0 1 2.31 4.333 2.1 2.1 0 0 1-1.77 2.383z" transform="translate(-1133 -38)"/></svg>