<svg xmlns="http://www.w3.org/2000/svg" width="61.06" height="61" viewBox="0 0 61.06 61"><defs><style>.cls-1 { fill: #3badbb; fill-rule: evenodd; }</style></defs><path id="new" class="cls-1" d="M53.51 10.3l-6.25-1.705-3.2-5.542-6.36.9-5.14-3.956-5.6 3.229-6.26-1.695-3.96 5.058-6.38.91-1.65 6.263-5.59 3.229.85 6.436-3.96 5.058 3.19 5.552-1.65 6.263 5.15 3.957.85 6.435 6.25 1.7 3.21 5.532 6.36-.9 5.15 3.956 5.59-3.229 6.25 1.7 3.98-5.068 6.36-.9 1.66-6.273 5.6-3.229-.86-6.436 3.96-5.058-3.2-5.542 1.65-6.263-5.13-3.967zm-27.63 32.118l-2.8 1.619-7.82-4.029 3.69 6.408-3.46 2-8-13.857 2.67-1.539 1.04.556 6.92 3.393-3.7-6.408 3.46-2zm4.39-16.391l-5.19 3 1 1.732 3.46-2 2 3.464-3.46 2 1 1.732 5.19-3 2 3.465-8.66 5-8-13.856 8.66-5zm21.46 1.473l-3.01 1.74-5.96-5.332 1.48 7.921-2.93 1.689-11.35-11.227 2.74-2.969 6.32 6.279-1.14-6.266 3.48-2.01 4.73 4.2-2.19-8.668 3.92-.88z"/></svg>