<svg xmlns="http://www.w3.org/2000/svg" width="57.969" height="63.5" viewBox="0 0 57.969 63.5"><defs><style>.cls-1 { fill: white; fill-rule: evenodd; }</style></defs><path id="recently_viewed" class="cls-1" d="M733 69.756a29.123 29.123 0 0 1-1.12 7.939h-5.536a23.759 23.759 0 0 0-22.327-31.756 23.353 23.353 0 0 0-12.263 3.477l4.893 7.108h-18.428l5.67-18.524 4.875 7.074a28.627 28.627 0 0 1 15.253-4.427 29.048 29.048 0 0 1 28.983 29.109zm-16.742 20.355a23.382 23.382 0 0 1-12.241 3.461 23.767 23.767 0 0 1-22.331-31.756h-5.533a29.059 29.059 0 0 0 27.864 37.048 28.618 28.618 0 0 0 15.229-4.411l4.882 7.057 5.672-18.494h-18.429zm-12.241-28.294a7.939 7.939 0 1 0 7.9 7.939 7.922 7.922 0 0 0-7.9-7.939z" transform="translate(-675.031 -38)"/></svg>