<svg xmlns="http://www.w3.org/2000/svg" width="76" height="53" viewBox="0 0 76 53"><defs><style>.cls-1 { fill: #e8e9ed; fill-rule: evenodd; }</style></defs><path id="referrals" class="cls-1" d="M1097.94 256.147c-10.44-1.766-9.41-4.288-9.41-6.054v-3.28a16.848 16.848 0 0 0 5.11-12.613v-8.576c0-9.082-6.72-12.613-12.79-12.613s-12.79 3.531-12.79 12.613v8.576a17.688 17.688 0 0 0 5.2 12.866v3.027c0 1.766.94 4.288-9.5 6.054-9.36 1.766-11.05 7.316-11.05 9.838h56.28c0-2.522-1.68-8.072-11.05-9.838zm-36.04-38.168h-25.68a3.1 3.1 0 0 0-3.21 3.164 3.309 3.309 0 0 0 3.21 3.165h25.68a3.309 3.309 0 0 0 3.21-3.165 3.1 3.1 0 0 0-3.21-3.164zm-6.42 25.318h-6.42a3.1 3.1 0 0 0-3.21 3.165 3.3 3.3 0 0 0 3.21 3.165h6.42a3.309 3.309 0 0 0 3.21-3.165 3.1 3.1 0 0 0-3.21-3.162zm3.21-12.659h-16.05a3.1 3.1 0 0 0-3.21 3.165 3.3 3.3 0 0 0 3.21 3.165h16.05a3.309 3.309 0 0 0 3.21-3.165 3.1 3.1 0 0 0-3.21-3.165z" transform="translate(-1033 -213)"/></svg>