<svg xmlns="http://www.w3.org/2000/svg" width="60" height="54" viewBox="0 0 60 54"><defs><style>.cls-1 { fill: #e8e9ed; fill-rule: evenodd; }</style></defs><path id="report" class="cls-1" d="M1612 43h-4a9.944 9.944 0 0 0-9.99 10v44h24v-40h-20.01v-4a5.954 5.954 0 0 1 6-6h4a5.933 5.933 0 0 1 5.99 6v4.8h4.02v-4.8a9.961 9.961 0 0 0-10.01-10zm24 14h-9.99v40h9.99a4.012 4.012 0 0 0 4-4v-32a4.012 4.012 0 0 0-4-4zm-56 4v32a4.016 4.016 0 0 0 4.02 4h9.99v-40h-9.99a4.016 4.016 0 0 0-4.02 4z" transform="translate(-1580 -43)"/></svg>