<svg xmlns="http://www.w3.org/2000/svg" width="55.502" height="56" viewBox="0 0 55.502 56"><defs><style>.cls-1 { fill: #fff; fill-rule: evenodd; }</style></defs><path id="search" class="cls-1" d="M1000.68 480a16.007 16.007 0 0 1 12.91 25.238l-1.56 2.224-2.21 1.578a15.561 15.561 0 0 1-9.14 2.96 16 16 0 0 1 0-32m0-8a24 24 0 0 0 0 48 23.464 23.464 0 0 0 13.73-4.438l11.16 11.272a3.909 3.909 0 0 0 5.57 0l.06-.058a3.817 3.817 0 0 0 0-5.634l-11.16-11.27a24.017 24.017 0 0 0-19.36-37.872" transform="translate(-976.938 -472)"/></svg>