<svg xmlns="http://www.w3.org/2000/svg" width="60.031" height="64" viewBox="0 0 60.031 64"><defs><style>.cls-1 { fill: #9289ca; fill-rule: evenodd; }</style></defs><path id="settings" class="cls-1" d="M97.986 102a31.169 31.169 0 0 1-6.19-.624 3.27 3.27 0 0 1-2.396-2.04 60.761 60.761 0 0 0-3.086-6.781c-.586-.312-1.16-.65-1.717-1.008a59.032 59.032 0 0 0-7.319.672 3.227 3.227 0 0 1-2.936-1.086 31.986 31.986 0 0 1-6.189-10.9 3.349 3.349 0 0 1 .544-3.13 60.068 60.068 0 0 0 4.234-6.103q-.038-1.008 0-2.017a60.315 60.315 0 0 0-4.231-6.105 3.349 3.349 0 0 1-.544-3.129 31.979 31.979 0 0 1 6.189-10.9 3.23 3.23 0 0 1 2.938-1.084 58.373 58.373 0 0 0 7.317.672q.837-.538 1.719-1.009a60.633 60.633 0 0 0 3.081-6.776 3.271 3.271 0 0 1 2.4-2.044 31.142 31.142 0 0 1 12.379 0 3.265 3.265 0 0 1 2.392 2.043 60.85 60.85 0 0 0 3.087 6.78q.881.47 1.718 1.009a58.418 58.418 0 0 0 7.318-.672 3.21 3.21 0 0 1 2.939 1.086 32 32 0 0 1 6.187 10.9 3.349 3.349 0 0 1-.545 3.129 60.514 60.514 0 0 0-4.231 6.107c.026.671.026 1.344 0 2.015a60.59 60.59 0 0 0 4.231 6.106 3.347 3.347 0 0 1 .545 3.127 31.963 31.963 0 0 1-6.187 10.9 3.221 3.221 0 0 1-2.939 1.086 59.046 59.046 0 0 0-7.318-.672q-.838.54-1.718 1.008a61.13 61.13 0 0 0-3.087 6.781 3.266 3.266 0 0 1-2.394 2.044 31.141 31.141 0 0 1-6.191.615zm-3.221-6.83a24.342 24.342 0 0 0 6.442 0 67.457 67.457 0 0 1 3.25-6.74 3.264 3.264 0 0 1 1.449-1.37 18.558 18.558 0 0 0 2.661-1.564 3.206 3.206 0 0 1 1.894-.59 64.981 64.981 0 0 1 7.367.508 25.236 25.236 0 0 0 3.218-5.669 67.036 67.036 0 0 1-4.114-6.233 3.353 3.353 0 0 1-.445-1.96 19.2 19.2 0 0 0 0-3.126 3.353 3.353 0 0 1 .445-1.96 67.223 67.223 0 0 1 4.114-6.233 25.229 25.229 0 0 0-3.218-5.668 64.761 64.761 0 0 1-7.369.507 3.2 3.2 0 0 1-1.892-.591 18.684 18.684 0 0 0-2.661-1.563 3.279 3.279 0 0 1-1.449-1.37 67.549 67.549 0 0 1-3.252-6.739 24.5 24.5 0 0 0-6.439 0 67.553 67.553 0 0 1-3.251 6.74 3.279 3.279 0 0 1-1.448 1.37 18.484 18.484 0 0 0-2.66 1.562 3.12 3.12 0 0 1-1.894.592 64.715 64.715 0 0 1-7.369-.507 25.3 25.3 0 0 0-3.219 5.668 66.813 66.813 0 0 1 4.116 6.235 3.355 3.355 0 0 1 .444 1.959 19.242 19.242 0 0 0 0 3.126 3.356 3.356 0 0 1-.444 1.96 67.032 67.032 0 0 1-4.116 6.233 25.35 25.35 0 0 0 3.219 5.669 64.952 64.952 0 0 1 7.368-.508 3.627 3.627 0 0 1 1.9.592 18.265 18.265 0 0 0 2.66 1.562 3.274 3.274 0 0 1 1.448 1.37 67.56 67.56 0 0 1 3.245 6.742zm3.221-12.749a12.433 12.433 0 1 1 12.228-12.431 12.346 12.346 0 0 1-12.228 12.435zm0-18.246a5.815 5.815 0 1 0 5.719 5.815 5.774 5.774 0 0 0-5.719-5.811z" transform="translate(-67.969 -38)"/></svg>