<svg xmlns="http://www.w3.org/2000/svg" width="29.97" height="30" viewBox="0 0 29.97 30"><defs><style>.cls-1 { fill: #e8e9ed; fill-rule: evenodd; }</style></defs><path id="tag_copy" class="cls-1" d="M1423.6 495.007h-12.67a1.922 1.922 0 0 0-1.92 1.924v12.654a1.923 1.923 0 0 0 .56 1.361l13.49 13.484a1.931 1.931 0 0 0 1.36.563 1.9 1.9 0 0 0 1.36-.563l12.64-12.629a1.924 1.924 0 0 0 0-2.719l-13.46-13.51a1.923 1.923 0 0 0-1.36-.565m.39 10.62a4.37 4.37 0 1 1-4.37-4.373 4.367 4.367 0 0 1 4.37 4.373" transform="translate(-1409 -495)"/></svg>