<svg xmlns="http://www.w3.org/2000/svg" width="63.656" height="64" viewBox="0 0 63.656 64"><defs><style>.cls-1 { fill: #9289ca ; fill-rule: evenodd; }</style></defs><path id="tag" class="cls-1" d="M207.328 46l23.313 23.52a2.008 2.008 0 0 1 0 2.826l-18.541 18.632a1.982 1.982 0 0 1-2.812 0l-23.362-23.478v-19.5a1.993 1.993 0 0 1 1.988-2h19.414m1.606-8h-26.88a4.094 4.094 0 0 0-4.082 4.106v27.008a4.118 4.118 0 0 0 1.2 2.906l28.635 28.78a4.063 4.063 0 0 0 5.77 0l26.823-26.956a4.124 4.124 0 0 0 0-5.8l-28.58-28.834a4.069 4.069 0 0 0-2.886-1.21m-3.126 22a5.965 5.965 0 1 1-5.965-6 5.982 5.982 0 0 1 5.965 6" transform="translate(-177.969 -38)"/></svg>