<svg xmlns="http://www.w3.org/2000/svg" width="48" height="48" viewBox="0 0 48 48"><defs><style>.cls-1 { fill: #fff; fill-rule: evenodd; }</style></defs><path id="transactions" class="cls-1" d="M602 730h15a3 3 0 0 1 3 3v15a3 3 0 0 1-3 3h-15a3 3 0 0 1-3-3v-15a3 3 0 0 1 3-3zm27 0h15a3 3 0 0 1 3 3v15a3 3 0 0 1-3 3h-15a3 3 0 0 1-3-3v-15a3 3 0 0 1 3-3zm-27 27h15a3 3 0 0 1 3 3v15a3 3 0 0 1-3 3h-15a3 3 0 0 1-3-3v-15a3 3 0 0 1 3-3zm27 0h15a3 3 0 0 1 3 3v15a3 3 0 0 1-3 3h-15a3 3 0 0 1-3-3v-15a3 3 0 0 1 3-3zm-24-21h9v9h-9v-9zm27 0h9v9h-9v-9zm-27 27h9v9h-9v-9zm27 0h9v9h-9v-9z" transform="translate(-599 -730)"/></svg>