<svg xmlns="http://www.w3.org/2000/svg" width="64" height="64" viewBox="0 0 64 64"><defs><style>.cls-1 { fill: #e8e9ed; fill-rule: evenodd; }</style></defs><path id="users" class="cls-1" d="M1193.4 231h-.56a15.994 15.994 0 1 0-29.84-8 15.978 15.978 0 0 0-13.84 24h-.56c-5.7 2.552-9.6 8.02-9.6 13.852v6.148c0 1.4 2.22 4 3.88 4h40.62c1.66 0 3.5-2.6 3.5-4v-6.148a13.806 13.806 0 0 0-1.36-5.852h13.86c1.66 0 3.5-2.6 3.5-4v-6.148c0-5.832-3.9-11.3-9.6-13.852m-14.4-16a8 8 0 1 1-2.41 15.59 16.029 16.029 0 0 0-5.18-5.182 7.9 7.9 0 0 1 7.59-10.408m-16 16a8 8 0 1 1-7.86 9.354 6.716 6.716 0 0 1-.14-1.354 8 8 0 0 1 8-8m16 32h-32v-2.148a7.442 7.442 0 0 1 3.59-5.852h24.82a7.442 7.442 0 0 1 3.59 5.852v2.148zm16-16h-18.16a15.851 15.851 0 0 0 2.16-8h12.41a7.442 7.442 0 0 1 3.59 5.852v2.148z" transform="translate(-1139 -207)"/></svg>