<svg xmlns="http://www.w3.org/2000/svg" width="63.84" height="58.687" viewBox="0 0 63.84 58.687"><defs><style>.cls-1 { fill: #e8e9ed; fill-rule: evenodd; }</style></defs><path id="workflow" class="cls-1" d="M1415.73 59.164a10 10 0 1 0-12.25-7.071 9.953 9.953 0 0 0 12.25 7.071zm5.18 19.319a10.329 10.329 0 0 0-6.61 5.7l-.18.047-24.26-5.093-.19.052a8.822 8.822 0 0 0-.33-2.6 10 10 0 1 0-7.07 12.247 9.8 9.8 0 0 0 6.63-5.71l.17-.047 24.25 5.1.19-.052a10.234 10.234 0 0 0 .33 2.6 10 10 0 1 0 7.07-12.244zm-13.93-20.908l-2.67-3.011-18.45 16.536 2.65 3.017z" transform="translate(-1369.66 -39.469)"/></svg>